# xmcd CD database file
#
# Track frame offsets:
#	150
#	33872
#	55616
#	78051
#	108730
#	144612
#	164194
#	186587
#	202968
#	224776
#	256549
#	277868
#	304098
#
# Disc length: 4397 seconds
#
# Revision: 0
# Processed by: cddbd v1.5.2PL0 Copyright (c) Steve Scherf et al.
# Submitted via: CDex 1.70beta2
#
DISCID=ba112b0d
DTITLE=Ignasi Terraza Trio - Live at The Living Room, Bangkok
DYEAR=2010
DGENRE=Jazz
TTITLE0=An Emotional Dance
TTITLE1=Les Dotze Van Tocant
TTITLE2=Georgia in My Mind
TTITLE3=Give Me Another
TTITLE4=Mother Land
TTITLE5=Walz for Auro
TTITLE6=Corcovado
TTITLE7=Under the Sun
TTITLE8=Oscar's Will
TTITLE9=Cançó No.6
TTITLE10=Chega de Saudade
TTITLE11=Blues for Stephanie
TTITLE12=Audio Liner Notes
EXTD=YEAR: 2010
EXTT0=
EXTT1=
EXTT2=
EXTT3=
EXTT4=
EXTT5=
EXTT6=
EXTT7=
EXTT8=
EXTT9=
EXTT10=
EXTT11=
EXTT12=
PLAYORDER=
